<?xml version="1.0" encoding="UTF-8" standalone="no"?>
<!-- Created with Inkscape (http://www.inkscape.org/) -->

<svg
   xmlns:dc="http://purl.org/dc/elements/1.1/"
   xmlns:cc="http://creativecommons.org/ns#"
   xmlns:rdf="http://www.w3.org/1999/02/22-rdf-syntax-ns#"
   xmlns:svg="http://www.w3.org/2000/svg"
   xmlns="http://www.w3.org/2000/svg"
   xmlns:sodipodi="http://sodipodi.sourceforge.net/DTD/sodipodi-0.dtd"
   xmlns:inkscape="http://www.inkscape.org/namespaces/inkscape"
   width="744.09448819"
   height="1052.3622047"
   id="svg2"
   version="1.1"
   inkscape:version="0.48.3.1 r9886"
   sodipodi:docname="New document 1">
  <defs
     id="defs4" />
  <sodipodi:namedview
     id="base"
     pagecolor="#ffffff"
     bordercolor="#666666"
     borderopacity="1.0"
     inkscape:pageopacity="0.0"
     inkscape:pageshadow="2"
     inkscape:zoom="0.53557814"
     inkscape:cx="132.73079"
     inkscape:cy="520"
     inkscape:document-units="px"
     inkscape:current-layer="g3893"
     showgrid="false"
     inkscape:window-width="1366"
     inkscape:window-height="716"
     inkscape:window-x="0"
     inkscape:window-y="26"
     inkscape:window-maximized="1" />
  <metadata
     id="metadata7">
    <rdf:RDF>
      <cc:Work
         rdf:about="">
        <dc:format>image/svg+xml</dc:format>
        <dc:type
           rdf:resource="http://purl.org/dc/dcmitype/StillImage" />
        <dc:title></dc:title>
      </cc:Work>
    </rdf:RDF>
  </metadata>
  <g
     inkscape:label="Layer 1"
     inkscape:groupmode="layer"
     id="layer1">
    <g
       id="g3893"
       transform="matrix(-0.6016567,-0.79875479,0.79875479,-0.6016567,162.3751,893.73003)">
      <g
         id="g3899">
        <path
           sodipodi:type="arc"
           style="color:#000000;fill:#000000;fill-opacity:1;fill-rule:nonzero;stroke:#000000;stroke-width:1;stroke-linecap:butt;stroke-linejoin:miter;stroke-miterlimit:4;stroke-opacity:1;stroke-dasharray:none;stroke-dashoffset:0;marker:none;visibility:visible;display:inline;overflow:visible;enable-background:accumulate"
           id="path2989"
           sodipodi:cx="235.66788"
           sodipodi:cy="369.78354"
           sodipodi:rx="98.359978"
           sodipodi:ry="99.020111"
           d="m 334.02785,369.78354 c 0,54.6873 -44.03726,99.02011 -98.35997,99.02011 -54.32272,0 -98.35998,-44.33281 -98.35998,-99.02011 0,-54.6873 44.03726,-99.02011 98.35998,-99.02011 54.32271,0 98.35997,44.33281 98.35997,99.02011 z"
           transform="translate(29.0459,38.287777)" />
        <path
           sodipodi:type="arc"
           style="fill:#ffffff;fill-opacity:1;stroke:#000000;stroke-width:1;stroke-miterlimit:4;stroke-opacity:1;stroke-dasharray:none;stroke-dashoffset:0"
           id="path2989-3"
           sodipodi:cx="235.66788"
           sodipodi:cy="369.78354"
           sodipodi:rx="98.359978"
           sodipodi:ry="99.020111"
           d="m 334.02785,369.78354 c 0,54.6873 -44.03726,99.02011 -98.35997,99.02011 -54.32272,0 -98.35998,-44.33281 -98.35998,-99.02011 0,-54.6873 44.03726,-99.02011 98.35998,-99.02011 54.32271,0 98.35997,44.33281 98.35997,99.02011 z"
           transform="matrix(0.7598149,0,0,0.68141613,85.649815,156.09485)" />
        <path
           sodipodi:type="arc"
           style="fill:#ffffff;fill-opacity:1;stroke:none"
           id="path2989-3-3-6"
           sodipodi:cx="235.66788"
           sodipodi:cy="369.78354"
           sodipodi:rx="98.359978"
           sodipodi:ry="99.020111"
           d="m 334.02785,369.78354 c 0,54.6873 -44.03726,99.02011 -98.35997,99.02011 -54.32272,0 -98.35998,-44.33281 -98.35998,-99.02011 0,-54.6873 44.03726,-99.02011 98.35998,-99.02011 54.32271,0 98.35997,44.33281 98.35997,99.02011 z"
           transform="matrix(1.2565834,0,0,0.72182558,-29.736127,229.72893)" />
        <path
           style="fill:#000000;fill-opacity:1;stroke:none"
           d="m 314.88274,441.9827 c 21.27257,53.92425 36.22327,72.4698 -49.66106,73.09724 -88.89713,0.64946 -68.2175,-18.37179 -48.6027,-72.37935 15.16417,-41.75315 23.8456,-72.58703 49.66108,-73.09723 27.49468,-0.54339 31.75449,29.67054 48.60268,72.37934 z"
           id="path2989-3-3-6-4"
           inkscape:connector-curvature="0"
           sodipodi:nodetypes="sssss" />
      </g>
    </g>
  </g>
</svg>
